<svg xmlns="http://www.w3.org/2000/svg" viewBox="0 0 1276.59 2324.46"><defs><style>.cls-1{fill:#fff;}</style></defs><g id="Layer_2" data-name="Layer 2"><g id="Layer_3" data-name="Layer 3"><path class="cls-1" d="M1189.6,585.16a85.77,85.77,0,0,1-53.25-79.08L1134.73,140a140,140,0,0,0-140-140H281.86a140,140,0,0,0-140,140l-1.62,366.08A85.77,85.77,0,0,1,87,585.16,140,140,0,0,0,0,714.78V834A140,140,0,0,0,86.86,963.57a85.81,85.81,0,0,1,53.25,79.24l1.75,1281.65h992.87l1.75-1281.65a85.81,85.81,0,0,1,53.25-79.24A140,140,0,0,0,1276.59,834V714.78A140,140,0,0,0,1189.6,585.16Z"/></g></g></svg>